<svg width="456" height="80" viewBox="0 0 456 80" fill="none" xmlns="http://www.w3.org/2000/svg">
<path d="M9.2 67.3333C10.1145 68.3012 11.2303 69.0565 12.4686 69.5461C13.7069 70.0356 15.0376 70.2475 16.3667 70.1667C20.2632 69.9592 24.0805 68.985 27.6 67.3C32.8726 69.6628 38.7154 70.4527 44.4262 69.5749C50.1369 68.697 55.4727 66.1887 59.7923 62.3515C64.1119 58.5142 67.2314 53.5112 68.7762 47.9437C70.3209 42.3761 70.225 36.481 68.5 30.9667C72.8667 23.5333 74.3333 16.7667 70.7333 12.7C69.6868 11.4863 68.3586 10.5477 66.8651 9.9666C65.3715 9.38546 63.7583 9.17947 62.1667 9.36666C59.012 9.84788 56.0618 11.2246 53.6667 13.3333C48.2897 10.6014 42.214 9.55352 36.2325 10.3265C30.251 11.0996 24.6414 13.6575 20.1356 17.6667C15.6297 21.6759 12.4369 26.9501 10.9738 32.8012C9.5106 38.6522 9.845 44.8085 11.9333 50.4667C8.4 54.5 5.1 62.7333 9.2 67.3333ZM14.2 62.9333C13.4667 62.1 14.2 59.3667 15.4333 57.0667C16.9262 59.2129 18.6846 61.1617 20.6667 62.8667C17.2333 63.8667 14.9667 63.8 14.2 62.9333ZM62.5667 45.7C61.0537 51.6857 57.2301 56.8278 51.9333 60C48.3221 62.1511 44.2032 63.3016 40 63.3333C38.6114 63.3238 37.2271 63.1786 35.8667 62.9C41.0966 59.6934 46.0275 56.0231 50.6 51.9333C55.2041 47.8679 59.4425 43.4064 63.2667 38.6C63.404 40.9887 63.1679 43.3841 62.5667 45.7ZM62.8667 16.0667C63.401 15.9787 63.949 16.0307 64.4573 16.2177C64.9655 16.4046 65.4167 16.7201 65.7667 17.1333C66.5333 18 66.3 20.2667 64.9 23.5667C63.3967 21.2691 61.5917 19.1838 59.5333 17.3667C60.5372 16.6971 61.6745 16.2535 62.8667 16.0667ZM17.4 34.3667C18.131 31.3864 19.4476 28.5814 21.2731 26.1149C23.0986 23.6484 25.3967 21.5698 28.0333 20C31.6477 17.828 35.7832 16.676 40 16.6667C44.0381 16.6388 48.0124 17.6746 51.5232 19.6699C55.034 21.6652 57.9576 24.5497 60 28.0333C60.4432 28.7365 60.8332 29.4719 61.1667 30.2333C56.8805 36.3819 51.8538 41.9796 46.2 46.9C40.6427 52.0089 34.4734 56.4091 27.8333 60C23.6128 57.4073 20.3269 53.5387 18.4511 48.9543C16.5754 44.3699 16.2073 39.3075 17.4 34.5V34.3667Z" fill="url(#paint0_linear_5_65)"/>
<path d="M110.672 64.64C107.472 64.64 104.613 64.2773 102.096 63.552C99.6213 62.8267 97.424 61.7813 95.504 60.416C93.6267 59.0507 91.9413 57.4507 90.448 55.616L97.872 47.232C100.005 50.0053 102.203 51.8613 104.464 52.8C106.725 53.696 108.923 54.144 111.056 54.144C111.995 54.144 112.848 54.0587 113.616 53.888C114.384 53.6747 114.96 53.3547 115.344 52.928C115.771 52.4587 115.984 51.8827 115.984 51.2C115.984 50.6027 115.813 50.0907 115.472 49.664C115.131 49.2373 114.661 48.8747 114.064 48.576C113.467 48.2347 112.805 47.936 112.08 47.68C111.355 47.424 110.629 47.232 109.904 47.104C109.179 46.9333 108.475 46.7627 107.792 46.592C105.275 46.0373 103.077 45.3333 101.2 44.48C99.3227 43.6267 97.744 42.624 96.464 41.472C95.2267 40.2773 94.288 38.912 93.648 37.376C93.0507 35.84 92.752 34.112 92.752 32.192C92.752 30.1013 93.2427 28.1813 94.224 26.432C95.2053 24.6827 96.5067 23.1893 98.128 21.952C99.7493 20.672 101.605 19.712 103.696 19.072C105.829 18.3893 108.048 18.048 110.352 18.048C113.509 18.048 116.197 18.368 118.416 19.008C120.635 19.6053 122.491 20.48 123.984 21.632C125.52 22.784 126.843 24.128 127.952 25.664L120.4 32.96C119.504 31.9787 118.523 31.168 117.456 30.528C116.432 29.888 115.365 29.4187 114.256 29.12C113.147 28.7787 112.016 28.608 110.864 28.608C109.797 28.608 108.859 28.7147 108.048 28.928C107.28 29.1413 106.683 29.4613 106.256 29.888C105.829 30.272 105.616 30.8053 105.616 31.488C105.616 32.0853 105.851 32.6187 106.32 33.088C106.789 33.5147 107.387 33.8773 108.112 34.176C108.837 34.4747 109.605 34.7307 110.416 34.944C111.269 35.1147 112.037 35.264 112.72 35.392C115.067 35.8613 117.2 36.48 119.12 37.248C121.083 37.9733 122.789 38.912 124.24 40.064C125.691 41.1733 126.8 42.5387 127.568 44.16C128.336 45.7813 128.72 47.68 128.72 49.856C128.72 53.056 127.909 55.7653 126.288 57.984C124.709 60.16 122.555 61.824 119.824 62.976C117.136 64.0853 114.085 64.64 110.672 64.64ZM135.293 78.08V29.888H146.429L147.005 37.44L144.701 36.864C144.957 35.4133 145.661 34.112 146.812 32.96C148.007 31.808 149.479 30.8907 151.229 30.208C152.978 29.5253 154.877 29.184 156.925 29.184C159.783 29.184 162.322 29.952 164.541 31.488C166.759 32.9813 168.509 35.0507 169.789 37.696C171.069 40.3413 171.709 43.4133 171.709 46.912C171.709 50.3253 171.069 53.376 169.789 56.064C168.509 58.7093 166.738 60.8 164.477 62.336C162.215 63.8293 159.634 64.576 156.733 64.576C154.813 64.576 152.978 64.2347 151.229 63.552C149.522 62.8267 148.071 61.8667 146.877 60.672C145.725 59.4347 144.978 58.048 144.637 56.512L147.325 55.616V78.08H135.293ZM153.533 54.784C154.898 54.784 156.071 54.464 157.053 53.824C158.034 53.184 158.781 52.288 159.293 51.136C159.805 49.9413 160.061 48.5333 160.061 46.912C160.061 45.248 159.805 43.84 159.293 42.688C158.781 41.4933 158.034 40.576 157.053 39.936C156.071 39.296 154.898 38.976 153.533 38.976C152.167 38.976 150.994 39.296 150.013 39.936C149.031 40.5333 148.285 41.4293 147.773 42.624C147.261 43.8187 147.005 45.248 147.005 46.912C147.005 48.5333 147.261 49.9413 147.773 51.136C148.285 52.288 149.031 53.184 150.013 53.824C150.994 54.464 152.167 54.784 153.533 54.784ZM190.582 64.576C187.766 64.576 185.227 63.8293 182.966 62.336C180.747 60.8 178.977 58.7093 177.654 56.064C176.374 53.376 175.734 50.3253 175.734 46.912C175.734 43.4133 176.374 40.3413 177.654 37.696C178.934 35.0507 180.705 32.9813 182.966 31.488C185.227 29.952 187.83 29.184 190.774 29.184C192.353 29.184 193.803 29.3973 195.126 29.824C196.449 30.2507 197.601 30.8693 198.582 31.68C199.563 32.4907 200.417 33.408 201.142 34.432C201.867 35.456 202.465 36.5653 202.934 37.76L200.502 37.632V29.888H212.214V64H200.246V55.68L202.87 55.808C202.486 57.0453 201.91 58.1973 201.142 59.264C200.417 60.3307 199.521 61.2693 198.454 62.08C197.387 62.848 196.193 63.4667 194.87 63.936C193.59 64.3627 192.161 64.576 190.582 64.576ZM193.974 54.784C195.339 54.784 196.513 54.4853 197.494 53.888C198.475 53.248 199.222 52.3307 199.734 51.136C200.289 49.9413 200.566 48.5333 200.566 46.912C200.566 45.248 200.289 43.8187 199.734 42.624C199.222 41.4293 198.475 40.5333 197.494 39.936C196.513 39.296 195.339 38.976 193.974 38.976C192.609 38.976 191.435 39.296 190.454 39.936C189.515 40.5333 188.79 41.4293 188.278 42.624C187.766 43.8187 187.51 45.248 187.51 46.912C187.51 48.5333 187.766 49.9413 188.278 51.136C188.79 52.3307 189.515 53.248 190.454 53.888C191.435 54.4853 192.609 54.784 193.974 54.784ZM236.4 64.64C233.029 64.64 230 63.872 227.312 62.336C224.666 60.8 222.576 58.7093 221.04 56.064C219.504 53.376 218.736 50.3253 218.736 46.912C218.736 43.4987 219.504 40.4693 221.04 37.824C222.576 35.136 224.666 33.024 227.312 31.488C230 29.952 233.029 29.184 236.4 29.184C239.472 29.184 242.288 29.6747 244.848 30.656C247.45 31.6373 249.52 33.0453 251.056 34.88L244.592 42.56C244.122 41.9627 243.525 41.4293 242.8 40.96C242.074 40.448 241.264 40.064 240.368 39.808C239.514 39.5093 238.554 39.36 237.488 39.36C236.08 39.36 234.842 39.68 233.776 40.32C232.709 40.96 231.877 41.856 231.28 43.008C230.725 44.1173 230.448 45.3973 230.448 46.848C230.448 48.2987 230.725 49.5787 231.28 50.688C231.834 51.7973 232.645 52.6933 233.712 53.376C234.821 54.0587 236.08 54.4 237.488 54.4C238.554 54.4 239.514 54.272 240.368 54.016C241.264 53.76 242.053 53.3973 242.736 52.928C243.461 52.4587 244.08 51.904 244.592 51.264L251.056 59.008C249.477 60.8 247.386 62.1867 244.784 63.168C242.224 64.1493 239.429 64.64 236.4 64.64ZM272.803 64.64C268.92 64.64 265.571 63.8933 262.755 62.4C259.939 60.864 257.763 58.7733 256.227 56.128C254.691 53.44 253.923 50.3893 253.923 46.976C253.923 44.416 254.35 42.048 255.203 39.872C256.056 37.696 257.251 35.8187 258.787 34.24C260.323 32.6187 262.136 31.3813 264.227 30.528C266.36 29.632 268.686 29.184 271.203 29.184C273.678 29.184 275.918 29.6107 277.923 30.464C279.971 31.3173 281.72 32.5333 283.171 34.112C284.664 35.6907 285.795 37.5467 286.563 39.68C287.374 41.8133 287.736 44.16 287.651 46.72L287.587 49.408H260.707L259.235 43.456H278.051L276.899 44.736V43.52C276.899 42.5813 276.643 41.7707 276.131 41.088C275.662 40.3627 275.022 39.808 274.211 39.424C273.4 39.04 272.483 38.848 271.459 38.848C270.008 38.848 268.792 39.1467 267.811 39.744C266.872 40.2987 266.147 41.1093 265.635 42.176C265.123 43.2427 264.867 44.5227 264.867 46.016C264.867 47.7227 265.208 49.1947 265.891 50.432C266.616 51.6693 267.662 52.6293 269.027 53.312C270.435 53.9947 272.142 54.336 274.147 54.336C275.47 54.336 276.622 54.1653 277.603 53.824C278.627 53.4827 279.715 52.8853 280.867 52.032L286.371 59.776C284.878 60.9707 283.363 61.9307 281.827 62.656C280.334 63.3387 278.84 63.8293 277.347 64.128C275.854 64.4693 274.339 64.64 272.803 64.64Z" fill="white"/>
<path d="M316.063 64.64C312.564 64.64 309.343 64.064 306.399 62.912C303.455 61.76 300.895 60.16 298.719 58.112C296.586 56.0213 294.922 53.568 293.727 50.752C292.575 47.8933 291.999 44.7573 291.999 41.344C291.999 37.9733 292.596 34.88 293.791 32.064C295.028 29.2053 296.735 26.7307 298.911 24.64C301.087 22.5493 303.668 20.928 306.655 19.776C309.642 18.624 312.906 18.048 316.447 18.048C318.58 18.048 320.65 18.3253 322.655 18.88C324.703 19.392 326.623 20.16 328.415 21.184C330.207 22.208 331.807 23.488 333.215 25.024L325.599 33.856C324.874 33.0453 324.063 32.32 323.167 31.68C322.271 31.04 321.247 30.5493 320.095 30.208C318.986 29.824 317.748 29.632 316.383 29.632C314.804 29.632 313.311 29.9093 311.903 30.464C310.538 30.976 309.343 31.744 308.319 32.768C307.295 33.792 306.484 35.0293 305.887 36.48C305.332 37.9307 305.055 39.5947 305.055 41.472C305.055 43.264 305.332 44.8853 305.887 46.336C306.484 47.744 307.316 48.96 308.383 49.984C309.492 50.9653 310.794 51.7333 312.287 52.288C313.823 52.8427 315.53 53.12 317.407 53.12C318.73 53.12 319.967 52.928 321.119 52.544C322.314 52.16 323.402 51.648 324.383 51.008C325.364 50.368 326.239 49.664 327.007 48.896L333.023 58.432C331.956 59.6267 330.506 60.6933 328.671 61.632C326.879 62.5707 324.874 63.3173 322.655 63.872C320.479 64.384 318.282 64.64 316.063 64.64ZM355.178 64.64C351.551 64.64 348.309 63.872 345.45 62.336C342.591 60.8 340.351 58.7093 338.73 56.064C337.109 53.4187 336.298 50.368 336.298 46.912C336.298 43.456 337.109 40.4053 338.73 37.76C340.351 35.1147 342.591 33.024 345.45 31.488C348.309 29.952 351.551 29.184 355.178 29.184C358.805 29.184 362.026 29.952 364.842 31.488C367.701 33.024 369.941 35.1147 371.562 37.76C373.183 40.4053 373.994 43.456 373.994 46.912C373.994 50.368 373.183 53.4187 371.562 56.064C369.941 58.7093 367.701 60.8 364.842 62.336C362.026 63.872 358.805 64.64 355.178 64.64ZM355.178 54.592C356.458 54.592 357.61 54.272 358.634 53.632C359.701 52.9493 360.511 52.032 361.066 50.88C361.663 49.6853 361.962 48.3627 361.962 46.912C361.962 45.376 361.663 44.032 361.066 42.88C360.511 41.728 359.701 40.832 358.634 40.192C357.61 39.5093 356.458 39.168 355.178 39.168C353.855 39.168 352.682 39.5093 351.658 40.192C350.634 40.832 349.823 41.7493 349.226 42.944C348.629 44.096 348.33 45.4187 348.33 46.912C348.33 48.3627 348.629 49.6853 349.226 50.88C349.823 52.032 350.634 52.9493 351.658 53.632C352.682 54.272 353.855 54.592 355.178 54.592ZM392.896 64.704C390.037 64.704 387.477 63.9573 385.216 62.464C382.997 60.928 381.248 58.8373 379.968 56.192C378.688 53.504 378.048 50.432 378.048 46.976C378.048 43.52 378.688 40.4693 379.968 37.824C381.291 35.136 383.083 33.024 385.344 31.488C387.605 29.952 390.187 29.184 393.088 29.184C394.581 29.184 396.011 29.3973 397.376 29.824C398.741 30.2507 399.957 30.848 401.024 31.616C402.133 32.384 403.051 33.28 403.776 34.304C404.544 35.328 405.035 36.416 405.248 37.568L402.496 38.336V16.64H414.464V64H403.648L402.816 56.384L405.184 56.832C405.013 57.9413 404.565 58.9653 403.84 59.904C403.115 60.8427 402.197 61.6747 401.088 62.4C400.021 63.1253 398.763 63.68 397.312 64.064C395.904 64.4907 394.432 64.704 392.896 64.704ZM396.288 54.976C397.653 54.976 398.827 54.656 399.808 54.016C400.789 53.3333 401.536 52.416 402.048 51.264C402.56 50.0693 402.816 48.64 402.816 46.976C402.816 45.312 402.56 43.8827 402.048 42.688C401.536 41.4507 400.789 40.5333 399.808 39.936C398.827 39.296 397.653 38.976 396.288 38.976C394.923 38.976 393.749 39.296 392.768 39.936C391.787 40.5333 391.04 41.4507 390.528 42.688C390.016 43.8827 389.76 45.312 389.76 46.976C389.76 48.64 390.016 50.0693 390.528 51.264C391.04 52.416 391.787 53.3333 392.768 54.016C393.749 54.656 394.923 54.976 396.288 54.976ZM439.366 64.64C435.483 64.64 432.134 63.8933 429.318 62.4C426.502 60.864 424.326 58.7733 422.79 56.128C421.254 53.44 420.486 50.3893 420.486 46.976C420.486 44.416 420.912 42.048 421.766 39.872C422.619 37.696 423.814 35.8187 425.35 34.24C426.886 32.6187 428.699 31.3813 430.79 30.528C432.923 29.632 435.248 29.184 437.766 29.184C440.24 29.184 442.48 29.6107 444.486 30.464C446.534 31.3173 448.283 32.5333 449.734 34.112C451.227 35.6907 452.358 37.5467 453.126 39.68C453.936 41.8133 454.299 44.16 454.214 46.72L454.15 49.408H427.27L425.798 43.456H444.614L443.462 44.736V43.52C443.462 42.5813 443.206 41.7707 442.694 41.088C442.224 40.3627 441.584 39.808 440.774 39.424C439.963 39.04 439.046 38.848 438.022 38.848C436.571 38.848 435.355 39.1467 434.374 39.744C433.435 40.2987 432.71 41.1093 432.198 42.176C431.686 43.2427 431.43 44.5227 431.43 46.016C431.43 47.7227 431.771 49.1947 432.454 50.432C433.179 51.6693 434.224 52.6293 435.59 53.312C436.998 53.9947 438.704 54.336 440.71 54.336C442.032 54.336 443.184 54.1653 444.166 53.824C445.19 53.4827 446.278 52.8853 447.43 52.032L452.934 59.776C451.44 60.9707 449.926 61.9307 448.39 62.656C446.896 63.3387 445.403 63.8293 443.91 64.128C442.416 64.4693 440.902 64.64 439.366 64.64Z" fill="url(#paint1_linear_5_65)"/>
<defs>
<linearGradient id="paint0_linear_5_65" x1="6.66666" y1="9.99999" x2="73.3333" y2="70" gradientUnits="userSpaceOnUse">
<stop stop-color="#4615D8"/>
<stop offset="0.325" stop-color="#7321DC"/>
<stop offset="0.815" stop-color="#8A108C"/>
</linearGradient>
<linearGradient id="paint1_linear_5_65" x1="90" y1="40" x2="456" y2="40" gradientUnits="userSpaceOnUse">
<stop offset="0.535" stop-color="#4615D8"/>
<stop offset="0.775" stop-color="#7321DC"/>
<stop offset="1" stop-color="#8A108C"/>
</linearGradient>
</defs>
</svg>
