<svg width="24" height="24" viewBox="0 0 24 24" fill="none" xmlns="http://www.w3.org/2000/svg">
<path d="M2.76 20.2C3.03436 20.4904 3.36909 20.717 3.74058 20.8638C4.11207 21.0107 4.51127 21.0742 4.91 21.05C6.07896 20.9878 7.22416 20.6955 8.28 20.19C9.86179 20.8988 11.6146 21.1358 13.3279 20.8725C15.0411 20.6091 16.6418 19.8566 17.9377 18.7054C19.2336 17.5543 20.1694 16.0534 20.6328 14.3831C21.0963 12.7128 21.0675 10.9443 20.55 9.29C21.86 7.06 22.3 5.03 21.22 3.81C20.906 3.44589 20.5076 3.16432 20.0595 2.98998C19.6115 2.81564 19.1275 2.75384 18.65 2.81C17.7036 2.95437 16.8185 3.36739 16.1 4C14.4869 3.18041 12.6642 2.86606 10.8698 3.09796C9.0753 3.32987 7.39242 4.09726 6.04067 5.30002C4.68892 6.50277 3.73108 8.08503 3.29213 9.84035C2.85318 11.5957 2.9535 13.4426 3.58 15.14C2.52 16.35 1.53 18.82 2.76 20.2ZM4.26 18.88C4.04 18.63 4.26 17.81 4.63 17.12C5.07787 17.7639 5.60539 18.3485 6.2 18.86C5.17 19.16 4.49 19.14 4.26 18.88ZM18.77 13.71C18.3161 15.5057 17.169 17.0484 15.58 18C14.4966 18.6453 13.261 18.9905 12 19C11.5834 18.9971 11.1681 18.9536 10.76 18.87C12.329 17.908 13.8083 16.8069 15.18 15.58C16.5612 14.3604 17.8328 13.0219 18.98 11.58C19.0212 12.2966 18.9504 13.0152 18.77 13.71ZM18.86 4.82C19.0203 4.79361 19.1847 4.80922 19.3372 4.8653C19.4897 4.92138 19.625 5.01603 19.73 5.14C19.96 5.4 19.89 6.08 19.47 7.07C19.019 6.38072 18.4775 5.75513 17.86 5.21C18.1612 5.00913 18.5024 4.87607 18.86 4.82ZM5.22 10.31C5.43929 9.41593 5.83427 8.57442 6.38193 7.83447C6.92959 7.09452 7.619 6.47093 8.41 6C9.49432 5.3484 10.735 5.00282 12 5C13.2114 4.99164 14.4037 5.30238 15.457 5.90098C16.5102 6.49957 17.3873 7.36492 18 8.41C18.133 8.62097 18.25 8.84158 18.35 9.07C17.0642 10.9146 15.5562 12.5939 13.86 14.07C12.1928 15.6027 10.342 16.9227 8.35 18C7.08384 17.2222 6.09806 16.0616 5.53534 14.6863C4.97263 13.311 4.86219 11.7923 5.22 10.35V10.31Z" fill="url(#paint0_linear_1_4)"/>
<defs>
<linearGradient id="paint0_linear_1_4" x1="2" y1="3" x2="22" y2="21" gradientUnits="userSpaceOnUse">
<stop stop-color="#4615D8"/>
<stop offset="0.325" stop-color="#7321DC"/>
<stop offset="0.815" stop-color="#8A108C"/>
</linearGradient>
</defs>
</svg>
