<svg width="228" height="40" viewBox="0 0 228 40" fill="none" xmlns="http://www.w3.org/2000/svg">
<path d="M4.6 33.6667C5.05726 34.1506 5.61515 34.5283 6.2343 34.773C6.85345 35.0178 7.51878 35.1237 8.18333 35.0833C10.1316 34.9796 12.0403 34.4925 13.8 33.65C16.4363 34.8314 19.3577 35.2264 22.2131 34.7874C25.0685 34.3485 27.7364 33.0944 29.8961 31.1757C32.0559 29.2571 33.6157 26.7556 34.3881 23.9718C35.1604 21.1881 35.1125 18.2405 34.25 15.4833C36.4333 11.7667 37.1667 8.38333 35.3667 6.35C34.8434 5.74314 34.1793 5.27387 33.4325 4.9833C32.6858 4.69273 31.8791 4.58973 31.0833 4.68333C29.506 4.92394 28.0309 5.61232 26.8333 6.66667C24.1448 5.30068 21.107 4.77676 18.1163 5.16327C15.1255 5.54978 12.3207 6.82877 10.0678 8.83335C7.81486 10.8379 6.21847 13.475 5.48689 16.4006C4.7553 19.3261 4.9225 22.4042 5.96666 25.2333C4.2 27.25 2.55 31.3667 4.6 33.6667ZM7.1 31.4667C6.73333 31.05 7.1 29.6833 7.71667 28.5333C8.46311 29.6065 9.34231 30.5809 10.3333 31.4333C8.61666 31.9333 7.48333 31.9 7.1 31.4667ZM31.2833 22.85C30.5268 25.8429 28.615 28.4139 25.9667 30C24.1611 31.0755 22.1016 31.6508 20 31.6667C19.3057 31.6619 18.6135 31.5893 17.9333 31.45C20.5483 29.8467 23.0138 28.0116 25.3 25.9667C27.602 23.934 29.7213 21.7032 31.6333 19.3C31.702 20.4943 31.5839 21.6921 31.2833 22.85ZM31.4333 8.03333C31.7005 7.98935 31.9745 8.01536 32.2286 8.10883C32.4828 8.2023 32.7083 8.36004 32.8833 8.56666C33.2667 9 33.15 10.1333 32.45 11.7833C31.6984 10.6345 30.7959 9.59188 29.7667 8.68333C30.2686 8.34855 30.8373 8.12677 31.4333 8.03333ZM8.7 17.1833C9.06548 15.6932 9.72378 14.2907 10.6365 13.0574C11.5493 11.8242 12.6983 10.7849 14.0167 10C15.8239 8.91399 17.8916 8.33802 20 8.33333C22.0191 8.3194 24.0062 8.8373 25.7616 9.83496C27.517 10.8326 28.9788 12.2749 30 14.0167C30.2216 14.3683 30.4166 14.736 30.5833 15.1167C28.4403 18.191 25.9269 20.9898 23.1 23.45C20.3213 26.0044 17.2367 28.2046 13.9167 30C11.8064 28.7036 10.1634 26.7694 9.22557 24.4772C8.28772 22.185 8.10364 19.6538 8.7 17.25V17.1833Z" fill="url(#paint0_linear_15_94)"/>
<path d="M55.336 32.32C53.736 32.32 52.3067 32.1387 51.048 31.776C49.8107 31.4133 48.712 30.8907 47.752 30.208C46.8133 29.5253 45.9707 28.7253 45.224 27.808L48.936 23.616C50.0027 25.0027 51.1013 25.9307 52.232 26.4C53.3627 26.848 54.4613 27.072 55.528 27.072C55.9973 27.072 56.424 27.0293 56.808 26.944C57.192 26.8373 57.48 26.6773 57.672 26.464C57.8853 26.2293 57.992 25.9413 57.992 25.6C57.992 25.3013 57.9067 25.0453 57.736 24.832C57.5653 24.6187 57.3307 24.4373 57.032 24.288C56.7333 24.1173 56.4027 23.968 56.04 23.84C55.6773 23.712 55.3147 23.616 54.952 23.552C54.5893 23.4667 54.2373 23.3813 53.896 23.296C52.6373 23.0187 51.5387 22.6667 50.6 22.24C49.6613 21.8133 48.872 21.312 48.232 20.736C47.6133 20.1387 47.144 19.456 46.824 18.688C46.5253 17.92 46.376 17.056 46.376 16.096C46.376 15.0507 46.6213 14.0907 47.112 13.216C47.6027 12.3413 48.2533 11.5947 49.064 10.976C49.8747 10.336 50.8027 9.856 51.848 9.536C52.9147 9.19467 54.024 9.024 55.176 9.024C56.7547 9.024 58.0987 9.184 59.208 9.504C60.3173 9.80267 61.2453 10.24 61.992 10.816C62.76 11.392 63.4213 12.064 63.976 12.832L60.2 16.48C59.752 15.9893 59.2613 15.584 58.728 15.264C58.216 14.944 57.6827 14.7093 57.128 14.56C56.5733 14.3893 56.008 14.304 55.432 14.304C54.8987 14.304 54.4293 14.3573 54.024 14.464C53.64 14.5707 53.3413 14.7307 53.128 14.944C52.9147 15.136 52.808 15.4027 52.808 15.744C52.808 16.0427 52.9253 16.3093 53.16 16.544C53.3947 16.7573 53.6933 16.9387 54.056 17.088C54.4187 17.2373 54.8027 17.3653 55.208 17.472C55.6347 17.5573 56.0187 17.632 56.36 17.696C57.5333 17.9307 58.6 18.24 59.56 18.624C60.5413 18.9867 61.3947 19.456 62.12 20.032C62.8453 20.5867 63.4 21.2693 63.784 22.08C64.168 22.8907 64.36 23.84 64.36 24.928C64.36 26.528 63.9547 27.8827 63.144 28.992C62.3547 30.08 61.2773 30.912 59.912 31.488C58.568 32.0427 57.0427 32.32 55.336 32.32ZM67.6463 39.04V14.944H73.2143L73.5023 18.72L72.3503 18.432C72.4783 17.7067 72.8303 17.056 73.4062 16.48C74.0036 15.904 74.7396 15.4453 75.6143 15.104C76.4889 14.7627 77.4383 14.592 78.4623 14.592C79.8916 14.592 81.1609 14.976 82.2703 15.744C83.3796 16.4907 84.2543 17.5253 84.8943 18.848C85.5343 20.1707 85.8543 21.7067 85.8543 23.456C85.8543 25.1627 85.5343 26.688 84.8943 28.032C84.2543 29.3547 83.3689 30.4 82.2383 31.168C81.1076 31.9147 79.8169 32.288 78.3663 32.288C77.4063 32.288 76.4889 32.1173 75.6143 31.776C74.7609 31.4133 74.0356 30.9333 73.4383 30.336C72.8623 29.7173 72.4889 29.024 72.3183 28.256L73.6623 27.808V39.04H67.6463ZM76.7663 27.392C77.4489 27.392 78.0356 27.232 78.5263 26.912C79.0169 26.592 79.3903 26.144 79.6463 25.568C79.9023 24.9707 80.0303 24.2667 80.0303 23.456C80.0303 22.624 79.9023 21.92 79.6463 21.344C79.3903 20.7467 79.0169 20.288 78.5263 19.968C78.0356 19.648 77.4489 19.488 76.7663 19.488C76.0836 19.488 75.4969 19.648 75.0063 19.968C74.5156 20.2667 74.1423 20.7147 73.8863 21.312C73.6303 21.9093 73.5023 22.624 73.5023 23.456C73.5023 24.2667 73.6303 24.9707 73.8863 25.568C74.1423 26.144 74.5156 26.592 75.0063 26.912C75.4969 27.232 76.0836 27.392 76.7663 27.392ZM95.291 32.288C93.883 32.288 92.6137 31.9147 91.483 31.168C90.3737 30.4 89.4883 29.3547 88.827 28.032C88.187 26.688 87.867 25.1627 87.867 23.456C87.867 21.7067 88.187 20.1707 88.827 18.848C89.467 17.5253 90.3523 16.4907 91.483 15.744C92.6137 14.976 93.915 14.592 95.387 14.592C96.1763 14.592 96.9017 14.6987 97.563 14.912C98.2243 15.1253 98.8003 15.4347 99.291 15.84C99.7817 16.2453 100.208 16.704 100.571 17.216C100.934 17.728 101.232 18.2827 101.467 18.88L100.251 18.816V14.944H106.107V32H100.123V27.84L101.435 27.904C101.243 28.5227 100.955 29.0987 100.571 29.632C100.208 30.1653 99.7603 30.6347 99.227 31.04C98.6937 31.424 98.0963 31.7333 97.435 31.968C96.795 32.1813 96.0803 32.288 95.291 32.288ZM96.987 27.392C97.6697 27.392 98.2563 27.2427 98.747 26.944C99.2377 26.624 99.611 26.1653 99.867 25.568C100.144 24.9707 100.283 24.2667 100.283 23.456C100.283 22.624 100.144 21.9093 99.867 21.312C99.611 20.7147 99.2377 20.2667 98.747 19.968C98.2563 19.648 97.6697 19.488 96.987 19.488C96.3043 19.488 95.7177 19.648 95.227 19.968C94.7577 20.2667 94.395 20.7147 94.139 21.312C93.883 21.9093 93.755 22.624 93.755 23.456C93.755 24.2667 93.883 24.9707 94.139 25.568C94.395 26.1653 94.7577 26.624 95.227 26.944C95.7177 27.2427 96.3043 27.392 96.987 27.392ZM118.2 32.32C116.514 32.32 115 31.936 113.656 31.168C112.333 30.4 111.288 29.3547 110.52 28.032C109.752 26.688 109.368 25.1627 109.368 23.456C109.368 21.7493 109.752 20.2347 110.52 18.912C111.288 17.568 112.333 16.512 113.656 15.744C115 14.976 116.514 14.592 118.2 14.592C119.736 14.592 121.144 14.8373 122.424 15.328C123.725 15.8187 124.76 16.5227 125.528 17.44L122.296 21.28C122.061 20.9813 121.762 20.7147 121.4 20.48C121.037 20.224 120.632 20.032 120.184 19.904C119.757 19.7547 119.277 19.68 118.744 19.68C118.04 19.68 117.421 19.84 116.888 20.16C116.354 20.48 115.938 20.928 115.64 21.504C115.362 22.0587 115.224 22.6987 115.224 23.424C115.224 24.1493 115.362 24.7893 115.64 25.344C115.917 25.8987 116.322 26.3467 116.856 26.688C117.41 27.0293 118.04 27.2 118.744 27.2C119.277 27.2 119.757 27.136 120.184 27.008C120.632 26.88 121.026 26.6987 121.368 26.464C121.73 26.2293 122.04 25.952 122.296 25.632L125.528 29.504C124.738 30.4 123.693 31.0933 122.392 31.584C121.112 32.0747 119.714 32.32 118.2 32.32ZM136.402 32.32C134.46 32.32 132.786 31.9467 131.378 31.2C129.97 30.432 128.882 29.3867 128.114 28.064C127.346 26.72 126.962 25.1947 126.962 23.488C126.962 22.208 127.175 21.024 127.602 19.936C128.028 18.848 128.626 17.9093 129.394 17.12C130.162 16.3093 131.068 15.6907 132.114 15.264C133.18 14.816 134.343 14.592 135.602 14.592C136.839 14.592 137.959 14.8053 138.962 15.232C139.986 15.6587 140.86 16.2667 141.586 17.056C142.332 17.8453 142.898 18.7733 143.282 19.84C143.687 20.9067 143.868 22.08 143.826 23.36L143.794 24.704H130.354L129.618 21.728H139.026L138.45 22.368V21.76C138.45 21.2907 138.322 20.8853 138.066 20.544C137.831 20.1813 137.511 19.904 137.106 19.712C136.7 19.52 136.242 19.424 135.73 19.424C135.004 19.424 134.396 19.5733 133.906 19.872C133.436 20.1493 133.074 20.5547 132.818 21.088C132.562 21.6213 132.434 22.2613 132.434 23.008C132.434 23.8613 132.604 24.5973 132.946 25.216C133.308 25.8347 133.831 26.3147 134.514 26.656C135.218 26.9973 136.071 27.168 137.074 27.168C137.735 27.168 138.311 27.0827 138.802 26.912C139.314 26.7413 139.858 26.4427 140.434 26.016L143.186 29.888C142.439 30.4853 141.682 30.9653 140.914 31.328C140.167 31.6693 139.42 31.9147 138.674 32.064C137.927 32.2347 137.17 32.32 136.402 32.32Z" fill="white"/>
<path d="M158.032 32.32C156.282 32.32 154.672 32.032 153.2 31.456C151.728 30.88 150.448 30.08 149.36 29.056C148.293 28.0107 147.461 26.784 146.864 25.376C146.288 23.9467 146 22.3787 146 20.672C146 18.9867 146.298 17.44 146.896 16.032C147.514 14.6027 148.368 13.3653 149.456 12.32C150.544 11.2747 151.834 10.464 153.328 9.888C154.821 9.312 156.453 9.024 158.224 9.024C159.29 9.024 160.325 9.16267 161.328 9.44C162.352 9.696 163.312 10.08 164.208 10.592C165.104 11.104 165.904 11.744 166.608 12.512L162.8 16.928C162.437 16.5227 162.032 16.16 161.583 15.84C161.136 15.52 160.624 15.2747 160.048 15.104C159.493 14.912 158.874 14.816 158.192 14.816C157.402 14.816 156.656 14.9547 155.952 15.232C155.269 15.488 154.672 15.872 154.16 16.384C153.648 16.896 153.242 17.5147 152.944 18.24C152.666 18.9653 152.528 19.7973 152.528 20.736C152.528 21.632 152.666 22.4427 152.944 23.168C153.242 23.872 153.658 24.48 154.192 24.992C154.746 25.4827 155.397 25.8667 156.144 26.144C156.912 26.4213 157.765 26.56 158.704 26.56C159.365 26.56 159.984 26.464 160.56 26.272C161.157 26.08 161.701 25.824 162.192 25.504C162.682 25.184 163.12 24.832 163.503 24.448L166.512 29.216C165.978 29.8133 165.253 30.3467 164.336 30.816C163.44 31.2853 162.437 31.6587 161.328 31.936C160.24 32.192 159.141 32.32 158.032 32.32ZM177.589 32.32C175.776 32.32 174.154 31.936 172.725 31.168C171.296 30.4 170.176 29.3547 169.365 28.032C168.554 26.7093 168.149 25.184 168.149 23.456C168.149 21.728 168.554 20.2027 169.365 18.88C170.176 17.5573 171.296 16.512 172.725 15.744C174.154 14.976 175.776 14.592 177.589 14.592C179.402 14.592 181.013 14.976 182.421 15.744C183.85 16.512 184.97 17.5573 185.781 18.88C186.592 20.2027 186.997 21.728 186.997 23.456C186.997 25.184 186.592 26.7093 185.781 28.032C184.97 29.3547 183.85 30.4 182.421 31.168C181.013 31.936 179.402 32.32 177.589 32.32ZM177.589 27.296C178.229 27.296 178.805 27.136 179.317 26.816C179.85 26.4747 180.256 26.016 180.533 25.44C180.832 24.8427 180.981 24.1813 180.981 23.456C180.981 22.688 180.832 22.016 180.533 21.44C180.256 20.864 179.85 20.416 179.317 20.096C178.805 19.7547 178.229 19.584 177.589 19.584C176.928 19.584 176.341 19.7547 175.829 20.096C175.317 20.416 174.912 20.8747 174.613 21.472C174.314 22.048 174.165 22.7093 174.165 23.456C174.165 24.1813 174.314 24.8427 174.613 25.44C174.912 26.016 175.317 26.4747 175.829 26.816C176.341 27.136 176.928 27.296 177.589 27.296ZM196.448 32.352C195.019 32.352 193.739 31.9787 192.608 31.232C191.499 30.464 190.624 29.4187 189.984 28.096C189.344 26.752 189.024 25.216 189.024 23.488C189.024 21.76 189.344 20.2347 189.984 18.912C190.645 17.568 191.541 16.512 192.672 15.744C193.803 14.976 195.093 14.592 196.544 14.592C197.291 14.592 198.005 14.6987 198.688 14.912C199.371 15.1253 199.979 15.424 200.512 15.808C201.067 16.192 201.525 16.64 201.888 17.152C202.272 17.664 202.517 18.208 202.624 18.784L201.248 19.168V8.32H207.232V32H201.824L201.408 28.192L202.592 28.416C202.507 28.9707 202.283 29.4827 201.92 29.952C201.557 30.4213 201.099 30.8373 200.544 31.2C200.011 31.5627 199.381 31.84 198.656 32.032C197.952 32.2453 197.216 32.352 196.448 32.352ZM198.144 27.488C198.827 27.488 199.413 27.328 199.904 27.008C200.395 26.6667 200.768 26.208 201.024 25.632C201.28 25.0347 201.408 24.32 201.408 23.488C201.408 22.656 201.28 21.9413 201.024 21.344C200.768 20.7253 200.395 20.2667 199.904 19.968C199.413 19.648 198.827 19.488 198.144 19.488C197.461 19.488 196.875 19.648 196.384 19.968C195.893 20.2667 195.52 20.7253 195.264 21.344C195.008 21.9413 194.88 22.656 194.88 23.488C194.88 24.32 195.008 25.0347 195.264 25.632C195.52 26.208 195.893 26.6667 196.384 27.008C196.875 27.328 197.461 27.488 198.144 27.488ZM219.683 32.32C217.741 32.32 216.067 31.9467 214.659 31.2C213.251 30.432 212.163 29.3867 211.395 28.064C210.627 26.72 210.243 25.1947 210.243 23.488C210.243 22.208 210.456 21.024 210.883 19.936C211.309 18.848 211.907 17.9093 212.675 17.12C213.443 16.3093 214.349 15.6907 215.395 15.264C216.461 14.816 217.624 14.592 218.883 14.592C220.12 14.592 221.24 14.8053 222.243 15.232C223.267 15.6587 224.141 16.2667 224.867 17.056C225.613 17.8453 226.179 18.7733 226.563 19.84C226.968 20.9067 227.149 22.08 227.107 23.36L227.075 24.704H213.635L212.899 21.728H222.307L221.731 22.368V21.76C221.731 21.2907 221.603 20.8853 221.347 20.544C221.112 20.1813 220.792 19.904 220.387 19.712C219.981 19.52 219.523 19.424 219.011 19.424C218.285 19.424 217.677 19.5733 217.187 19.872C216.717 20.1493 216.355 20.5547 216.099 21.088C215.843 21.6213 215.715 22.2613 215.715 23.008C215.715 23.8613 215.885 24.5973 216.227 25.216C216.589 25.8347 217.112 26.3147 217.795 26.656C218.499 26.9973 219.352 27.168 220.355 27.168C221.016 27.168 221.592 27.0827 222.083 26.912C222.595 26.7413 223.139 26.4427 223.715 26.016L226.467 29.888C225.72 30.4853 224.963 30.9653 224.195 31.328C223.448 31.6693 222.701 31.9147 221.955 32.064C221.208 32.2347 220.451 32.32 219.683 32.32Z" fill="url(#paint1_linear_15_94)"/>
<defs>
<linearGradient id="paint0_linear_15_94" x1="3.33333" y1="5" x2="36.6667" y2="35" gradientUnits="userSpaceOnUse">
<stop stop-color="#4615D8"/>
<stop offset="0.325" stop-color="#7321DC"/>
<stop offset="0.815" stop-color="#8A108C"/>
</linearGradient>
<linearGradient id="paint1_linear_15_94" x1="45" y1="20" x2="228" y2="20" gradientUnits="userSpaceOnUse">
<stop offset="0.535" stop-color="#4615D8"/>
<stop offset="0.775" stop-color="#7321DC"/>
<stop offset="1" stop-color="#8A108C"/>
</linearGradient>
</defs>
</svg>
